:SAMPLES-PER-SECOND 30
:FULLY-SPECIFIED
:DEGREES
140
root  3.02759 41.0707 -1.28874 -176.223 -87.6159 173.554
RightUpLeg  1.9669 -7.70298 -5.79061
RightLeg  2.59054 -0.378577 2.87923
RightFoot  -0.781836 -0.00648305 0.200365
RightToes  -4.65663e-010 0 -3.6325e-017
Spine  -4.27607 -0.303901 3.4328
Spine1  15.9334 -0.0802462 -1.47791
HEad  11.7478 -0.389275 -1.28309
LeftShoulder1  6.87825 -10.7238 -41.9592
LeftArm  -35.2667 7.43541 -9.08018
LeftForeArm  125.995 -58.6177 -160.042
LeftHand  -0.244104 0.0205437 5.32207
RightShoulder  5.66925 9.50936 37.5408
RightArm  -20.5468 -11.2737 11.6948
RightForeArm  118.815 57.554 160.292
RightHand  -1.32592 -11.949 16.3938
LeftUpLeg  3.24557 6.49903 5.05741
LeftLeg  0.726142 12.3605 -4.29767
LeftFoot  -0.851017 0.0583588 -0.336348
LeftToes  4.18335e-011 1.59304e-011 3.38507e-012
141
root  3.06701 41.0675 -1.2984 -175.728 -87.8168 172.815
RightUpLeg  2.1517 -7.73628 -5.82284
RightLeg  2.69703 -0.523691 2.88269
RightFoot  -0.805867 -0.00460917 0.169523
RightToes  -4.65663e-010 0 -3.6325e-017
Spine  -4.31496 -0.361206 3.19402
Spine1  16.0445 -0.271635 -1.04755
HEad  13.218 -0.336527 -1.80331
LeftShoulder1  7.2061 -11.0044 -43.1879
LeftArm  -38.4456 5.49157 -13.7582
LeftForeArm  119.298 -58.9642 -159.317
LeftHand  -0.244104 0.0205437 5.32207
RightShoulder  6.01624 9.84713 38.9791
RightArm  -23.8172 -9.89247 16.7233
RightForeArm  102.025 55.9866 160.487
RightHand  -0.58232 -2.37253 -15.8051
LeftUpLeg  3.38745 6.52514 5.09227
LeftLeg  0.794154 12.1204 -4.28585
LeftFoot  -0.816161 0.0570173 -0.324457
LeftToes  4.18335e-011 1.59304e-011 3.38507e-012
142
root  3.11189 41.0637 -1.30211 -175.087 -87.9459 171.93
RightUpLeg  2.3095 -7.78431 -5.87019
RightLeg  2.8147 -0.60696 2.89144
RightFoot  -0.815532 -0.00205945 0.127348
RightToes  -4.65663e-010 0 -3.6325e-017
Spine  -4.31171 -0.353746 3.20861
Spine1  15.9576 -0.262115 -1.05532
HEad  14.7673 -0.296674 -2.06537
LeftShoulder1  7.49798 -11.2974 -44.098
LeftArm  -43.0783 3.40979 -18.2668
LeftForeArm  119.95 -60.2397 -158.366
LeftHand  -0.244104 0.0205437 5.32207
RightShoulder  6.24124 10.076 39.8316
RightArm  -29.2364 -8.15335 21.804
RightForeArm  102.644 57.5879 159.38
RightHand  -6.99836 15.5781 -38.2244
LeftUpLeg  3.53227 6.53243 5.10192
LeftLeg  0.857762 11.9709 -4.26875
LeftFoot  -0.79071 0.0555297 -0.310951
LeftToes  4.18335e-011 1.59304e-011 3.38507e-012
143
root  3.15656 41.0606 -1.30017 -173.591 -88.0654 170.252
RightUpLeg  2.39902 -7.84451 -5.94511
RightLeg  2.93077 -0.657439 2.89465
RightFoot  -0.828235 -0.000851491 0.105138
RightToes  -4.65663e-010 0 -3.6325e-017
Spine  -4.21698 -0.289523 3.55959
Spine1  15.6201 -0.0220001 -1.62205
HEad  16.0933 -0.428351 -1.84091
LeftShoulder1  7.69155 -11.526 -44.5719
LeftArm  -47.2744 1.34222 -21.7959
LeftForeArm  128.074 -63.5371 -156.045
LeftHand  -0.244104 0.0205437 5.32207
RightShoulder  6.41783 10.3141 40.292
RightArm  -35.9132 -7.04496 25.439
RightForeArm  115.604 62.5021 155.963
RightHand  -15.8 28.6484 -50.8103
LeftUpLeg  3.61507 6.47999 5.04811
LeftLeg  0.895675 11.8964 -4.23024
LeftFoot  -0.750133 0.055366 -0.31869
LeftToes  4.18335e-011 1.59304e-011 3.38507e-012
144
root  3.18919 41.0595 -1.2971 -171.518 -88.2302 168.098
RightUpLeg  2.43933 -7.88066 -6.00891
RightLeg  2.98511 -0.757179 2.88219
RightFoot  -0.845711 -0.00327641 0.13844
RightToes  -4.65663e-010 0 -3.6325e-017
Spine  -4.17627 -0.169754 3.98046
Spine1  15.2531 0.281589 -2.22787
HEad  17.0487 -0.807874 -1.4913
LeftShoulder1  7.74367 -11.6484 -44.5087
LeftArm  -49.3686 -0.732551 -23.8262
LeftForeArm  140.488 -69.4278 -150.138
LeftHand  -0.244104 0.0205437 5.32207
RightShoulder  6.50509 10.4587 40.4279
RightArm  -41.6153 -6.80148 26.5197
RightForeArm  127.991 68.904 149.368
RightHand  -20.5504 33.6391 -56.333
LeftUpLeg  3.6159 6.40309 4.97284
LeftLeg  0.899948 11.81 -4.18851
LeftFoot  -0.694102 0.0556606 -0.334234
LeftToes  4.18335e-011 1.59304e-011 3.38507e-012
145
root  3.20162 41.0608 -1.29512 -169.723 -88.4305 166.315
RightUpLeg  2.46414 -7.87436 -6.02378
RightLeg  2.94299 -0.946011 2.86286
RightFoot  -0.852767 -0.00870833 0.217507
RightToes  -4.65663e-010 0 -3.6325e-017
Spine  -4.38091 -0.0225343 4.15275
Spine1  15.1887 0.461185 -2.3524
HEad  17.5426 -1.13375 -1.54576
LeftShoulder1  7.69498 -11.696 -44.0703
LeftArm  -49.894 -2.30506 -24.2023
LeftForeArm  148.479 -76.5519 -135.465
LeftHand  -0.244104 0.0205437 5.32207
RightShoulder  6.43528 10.372 40.2266
RightArm  -44.6012 -7.16245 24.9416
RightForeArm  130.287 74.9707 136.825
RightHand  -19.3243 32.4202 -54.7805
LeftUpLeg  3.5643 6.36718 4.93934
LeftLeg  0.873066 11.6537 -4.17877
LeftFoot  -0.645313 0.0537795 -0.31666
LeftToes  4.18335e-011 1.59304e-011 3.38507e-012
